# xmcd
#
# Track frame offsets: 
#        150
#        16304
#        42843
#        63186
#        82425
#        103908
#        127576
#        145923
#        173440
#        193472
#        240090
#
# Disc length: 3429 seconds
#
# Revision: 0
# Processed by: cddbd v1.4PL0 Copyright (c) Steve Scherf et al.
# Submitted via: ExactAudioCopy v0.90b4
#
DISCID=8c0d630b
DTITLE=Van Morrison - If You Meet Me By The Lamplight I'll Be Around, 
DTITLE=disc 1
DYEAR=1999
DGENRE=Celtic
TTITLE0=Inarticulate Speech Of The Heart # 1
TTITLE1=Moondance
TTITLE2=Satisfied
TTITLE3=Back On Top
TTITLE4=Going Down Geneva
TTITLE5=In The Midnight
TTITLE6=Cleaning Windows
TTITLE7=Vanlose Stairway > Trans-Euro Train
TTITLE8=Centerpiece
TTITLE9=In The Afternoon > Joe Turner Sings > Don't You Make Me High >
TTITLE9=Sex Machine
TTITLE10=Precious Time
EXTD=
EXTT0=
EXTT1=
EXTT2=
EXTT3=
EXTT4=
EXTT5=
EXTT6=
EXTT7=
EXTT8=
EXTT9=
EXTT10=
PLAYORDER=
